<svg version="1.1" viewBox="0.0 0.0 1024.0 1024.0" fill="none" stroke="none" stroke-linecap="square" stroke-miterlimit="10" xmlns:xlink="http://www.w3.org/1999/xlink" xmlns="http://www.w3.org/2000/svg"><clipPath id="p.0"><path d="m0 0l1024.0 0l0 1024.0l-1024.0 0l0 -1024.0z" clip-rule="nonzero"/></clipPath><g clip-path="url(#p.0)"><path fill="#000000" fill-opacity="0.0" d="m0 0l1024.0 0l0 1024.0l-1024.0 0z" fill-rule="evenodd"/><path fill="#e8eef2" d="m4.175853E-4 179.89674l0 0c0 -99.354004 80.54232 -179.89633 179.89633 -179.89633l664.2074 0l0 0c47.711426 0 93.46875 18.953308 127.20587 52.690414c33.73712 33.737103 52.69037 79.494446 52.69037 127.20592l0 664.2074c0 99.35394 -80.5423 179.89624 -179.89624 179.89624l-664.2074 0c-99.354004 0 -179.89633 -80.5423 -179.89633 -179.89624z" fill-rule="evenodd"/><path fill="#20a4f3" d="m155.3116 223.2634l0 0c0 -37.527603 30.422134 -67.94975 67.94974 -67.94975l577.47345 0c18.021423 0 35.304688 7.1589813 48.04773 19.902023c12.743042 12.743057 19.902039 30.026337 19.902039 48.04773l0 0l0 0c0 37.52762 -30.42212 67.94974 -67.94977 67.94974l-577.47345 0c-37.527603 0 -67.94974 -30.42212 -67.94974 -67.94974z" fill-rule="evenodd"/><path fill="#20a4f3" d="m155.3116 800.7322l0 0c0 -37.527588 30.422134 -67.94971 67.94974 -67.94971l577.47345 0c18.021423 0 35.304688 7.1589355 48.04773 19.902039c12.743042 12.743042 19.902039 30.026306 19.902039 48.04767l0 0l0 0c0 37.52765 -30.42212 67.94977 -67.94977 67.94977l-577.47345 0c-37.527603 0 -67.94974 -30.42212 -67.94974 -67.94977z" fill-rule="evenodd"/><path fill="#20a4f3" d="m155.31592 500.2033l0 0c0 -37.52762 30.422134 -67.94974 67.94974 -67.94974l577.4735 0c18.021423 0 35.304688 7.158966 48.04773 19.902008c12.743042 12.743042 19.902039 30.026337 19.902039 48.04773l0 0l0 0c0 37.527588 -30.42212 67.94977 -67.94977 67.94977l-577.4735 0c-37.527603 0 -67.94974 -30.42218 -67.94974 -67.94977z" fill-rule="evenodd"/><path fill="#20a4f3" d="m223.28043 155.31364l0 0c37.52762 0 67.94974 30.42215 67.94974 67.94975l0 577.4735c0 18.021423 -7.158966 35.304688 -19.902008 48.04773c-12.743042 12.743042 -30.026337 19.902039 -48.04773 19.902039l0 0l0 0c-37.527603 0 -67.94974 -30.42218 -67.94974 -67.94977l0 -577.4735c0 -37.527603 30.422134 -67.94975 67.94974 -67.94975z" fill-rule="evenodd"/><path fill="#20a4f3" d="m800.731 155.31364l0 0c37.52765 0 67.94977 30.42215 67.94977 67.94975l0 274.58054l0 0c0 18.021423 -7.1589966 35.304688 -19.902039 48.04773c-12.743042 12.743042 -30.026306 19.902039 -48.04773 19.902039l0 0l0 0c-37.527588 0 -67.94971 -30.42218 -67.94971 -67.94977l0 -274.58054c0 -37.527603 30.42212 -67.94975 67.94971 -67.94975z" fill-rule="evenodd"/></g></svg>