<svg version="1.1" viewBox="0.0 0.0 4450.0 1024.0" fill="none" stroke="none" stroke-linecap="square" stroke-miterlimit="10" xmlns:xlink="http://www.w3.org/1999/xlink" xmlns="http://www.w3.org/2000/svg"><clipPath id="p.0"><path d="m0 0l4450.0 0l0 1024.0l-4450.0 0l0 -1024.0z" clip-rule="nonzero"/></clipPath><g clip-path="url(#p.0)"><path fill="#000000" fill-opacity="0.0" d="m0 0l4450.0 0l0 1024.0l-4450.0 0z" fill-rule="evenodd"/><path fill="#20a4f3" d="m17.223488 129.07051l0 0c0 -50.036125 40.562298 -90.59842 90.59843 -90.59842l769.98425 0c24.028198 0 47.072266 9.545166 64.062744 26.535667c16.99054 16.990501 26.535706 40.03456 26.535706 64.06275l0 0l0 0c0 50.036133 -40.562317 90.598434 -90.59845 90.598434l-769.98425 0c-50.03613 0 -90.59843 -40.5623 -90.59843 -90.598434z" fill-rule="evenodd"/><path fill="#20a4f3" d="m17.223488 899.0376l0 0c0 -50.036133 40.562298 -90.59839 90.59843 -90.59839l769.98425 0c24.028198 0 47.072266 9.545166 64.062744 26.535645c16.99054 16.99054 26.535706 40.034546 26.535706 64.062744l0 0l0 0c0 50.036133 -40.562317 90.59845 -90.59845 90.59845l-769.98425 0c-50.03613 0 -90.59843 -40.562317 -90.59843 -90.59845z" fill-rule="evenodd"/><path fill="#20a4f3" d="m17.229256 498.3279l0 0c0 -50.036133 40.562298 -90.59842 90.59843 -90.59842l769.98425 0c24.028198 0 47.072266 9.545166 64.062744 26.535645c16.990479 16.990509 26.535645 40.034576 26.535645 64.062775l0 0l0 0c0 50.036102 -40.562256 90.59842 -90.59839 90.59842l-769.98425 0c-50.03613 0 -90.59843 -40.562317 -90.59843 -90.59842z" fill-rule="evenodd"/><path fill="#20a4f3" d="m107.85284 38.47209l0 0c50.036125 0 90.59843 40.562294 90.59843 90.59842l0 769.98425c0 24.028198 -9.545166 47.072266 -26.53566 64.062805c-16.990509 16.990479 -40.034576 26.535645 -64.06277 26.535645l0 0l0 0c-50.03613 0 -90.59843 -40.562317 -90.59843 -90.59845l0 -769.98425c0 -50.036125 40.562298 -90.59842 90.59843 -90.59842z" fill-rule="evenodd"/><path fill="#20a4f3" d="m877.79974 38.47209l0 0c50.036133 0 90.59839 40.562294 90.59839 90.59842l0 366.14172l0 0c0 24.028168 -9.545166 47.072235 -26.535645 64.062775c-16.990479 16.990479 -40.034546 26.535645 -64.062744 26.535645l0 0l0 0c-50.036133 0 -90.59845 -40.562317 -90.59845 -90.59842l0 -366.14172c0 -50.036125 40.562317 -90.59842 90.59845 -90.59842z" fill-rule="evenodd"/><path fill="#20a4f3" d="m1172.5538 129.07051l0 0c0 -50.036125 40.562256 -90.59842 90.59839 -90.59842l769.98425 0c24.02832 0 47.072266 9.545166 64.062744 26.535667c16.990479 16.990501 26.535645 40.03456 26.535645 64.06275l0 0l0 0c0 50.036133 -40.562256 90.598434 -90.59839 90.598434l-769.98425 0c-50.036133 0 -90.59839 -40.5623 -90.59839 -90.598434z" fill-rule="evenodd"/><path fill="#20a4f3" d="m1263.1832 38.47209l0 0c50.036133 0 90.59839 40.562294 90.59839 90.59842l0 769.98425c0 24.028198 -9.545166 47.072266 -26.535645 64.062805c-16.990479 16.990479 -40.034546 26.535645 -64.062744 26.535645l0 0l0 0c-50.036133 0 -90.59851 -40.562317 -90.59851 -90.59845l0 -769.98425c0 -50.036125 40.562378 -90.59842 90.59851 -90.59842z" fill-rule="evenodd"/><path fill="#20a4f3" d="m2033.1274 38.47209l0 0c50.036133 0 90.59839 40.562294 90.59839 90.59842l0 769.98425c0 24.028198 -9.545166 47.072266 -26.535645 64.062805c-16.990479 16.990479 -40.034424 26.535645 -64.062744 26.535645l0 0l0 0c-50.036133 0 -90.59839 -40.562317 -90.59839 -90.59845l0 -769.98425c0 -50.036125 40.562256 -90.59842 90.59839 -90.59842z" fill-rule="evenodd"/><path fill="#20a4f3" d="m1648.1525 38.47209l0 0c50.036133 0 90.59839 40.562294 90.59839 90.59842l0 373.7008l0 0c0 24.028198 -9.545166 47.072266 -26.535645 64.062744c-16.990479 16.99054 -40.034546 26.535706 -64.062744 26.535706l0 0l0 0c-50.036133 0 -90.59851 -40.562317 -90.59851 -90.59845l0 -373.7008c0 -50.036125 40.562378 -90.59842 90.59851 -90.59842z" fill-rule="evenodd"/><path fill="#20a4f3" d="m3279.064 899.0484l0 0c0 50.036133 -40.562256 90.59839 -90.59839 90.59839l-769.9844 0c-24.028076 0 -47.072266 -9.545166 -64.062744 -26.535645c-16.990479 -16.990479 -26.535645 -40.034546 -26.535645 -64.062744l0 0l0 0c0 -50.036133 40.562256 -90.59845 90.59839 -90.59845l769.9844 0c50.036133 0 90.59839 40.562317 90.59839 90.59845z" fill-rule="evenodd"/><path fill="#20a4f3" d="m3188.4346 989.6468l0 0c-50.036133 0 -90.59839 -40.562256 -90.59839 -90.59839l0 -769.98425c0 -24.028198 9.545166 -47.072266 26.535645 -64.06277c16.990479 -16.990498 40.034424 -26.535664 64.062744 -26.535664l0 0l0 0c50.036133 0 90.59839 40.562298 90.59839 90.598434l0 769.98425c0 50.036133 -40.562256 90.59839 -90.59839 90.59839z" fill-rule="evenodd"/><path fill="#20a4f3" d="m2418.4902 989.6468l0 0c-50.036133 0 -90.59839 -40.562256 -90.59839 -90.59839l0 -769.98425c0 -24.028198 9.545166 -47.072266 26.535645 -64.06277c16.990479 -16.990498 40.034668 -26.535664 64.062744 -26.535664l0 0l0 0c50.036133 0 90.59839 40.562298 90.59839 90.598434l0 769.98425c0 50.036133 -40.562256 90.59839 -90.59839 90.59839z" fill-rule="evenodd"/><path fill="#20a4f3" d="m3509.052 959.9203l0 0c-35.38965 -35.38971 -35.38965 -92.76782 0 -128.15753l763.9055 -763.9055c16.994629 -16.994736 40.044434 -26.542282 64.07861 -26.542282c24.03418 0 47.083984 9.547546 64.0791 26.542282l0 0l0 0c35.38965 35.389717 35.38965 92.76778 0 128.15749l-763.90576 763.9055c-35.38965 35.38971 -92.76758 35.38971 -128.15747 0z" fill-rule="evenodd"/><path fill="#20a4f3" d="m3508.9814 64.07952l0 0c35.38965 -35.38971 92.76758 -35.38971 128.15747 0l763.9055 763.9055c16.994629 16.994751 26.541992 40.044556 26.541992 64.078735c0 24.03418 -9.547363 47.083984 -26.541992 64.078735l0 0l0 0c-35.38965 35.38971 -92.76807 35.38971 -128.15771 0l-763.9053 -763.9055c-35.389893 -35.38971 -35.389893 -92.76777 0 -128.15747z" fill-rule="evenodd"/></g></svg>