<svg version="1.1" viewBox="0.0 0.0 1024.0 1024.0" fill="none" stroke="none" stroke-linecap="square" stroke-miterlimit="10" xmlns:xlink="http://www.w3.org/1999/xlink" xmlns="http://www.w3.org/2000/svg"><clipPath id="p.0"><path d="m0 0l1024.0 0l0 1024.0l-1024.0 0l0 -1024.0z" clip-rule="nonzero"/></clipPath><g clip-path="url(#p.0)"><path fill="#000000" fill-opacity="0.0" d="m0 0l1024.0 0l0 1024.0l-1024.0 0z" fill-rule="evenodd"/><path fill="#20a4f3" d="m0 512.0l0 0c0 -282.76978 229.23021 -512.0 512.0 -512.0l0 0c135.79083 0 266.02002 53.942703 362.0387 149.96133c96.018616 96.018616 149.9613 226.24783 149.9613 362.03867l0 0c0 282.76978 -229.23022 512.0 -512.0 512.0l0 0c-282.76978 0 -512.0 -229.23022 -512.0 -512.0z" fill-rule="evenodd"/><path fill="#ffffff" d="m842.3631 752.9656c-0.9351196 102.83246 -149.46747 185.7862 -331.835 185.32642c-182.3675 -0.45977783 -329.57837 -84.15924 -328.88266 -186.99225z" fill-rule="evenodd"/><path fill="#ffffff" d="m181.75133 752.2716l0 0c4.7495117 -98.645874 152.47392 -177.07257 332.3399 -176.43884c179.86603 0.63378906 325.7672 80.09497 328.2381 178.7663z" fill-rule="evenodd"/><path fill="#ffffff" d="m346.39975 296.4327l0 0c0 -91.46182 74.14447 -165.6063 165.6063 -165.6063l0 0c43.92151 0 86.04413 17.44777 117.10132 48.504974c31.057251 31.057205 48.505005 73.17981 48.505005 117.10132l0 0c0 91.46185 -74.14447 165.60632 -165.60632 165.60632l0 0c-91.46182 0 -165.6063 -74.14447 -165.6063 -165.60632z" fill-rule="evenodd"/></g></svg>