<svg version="1.1" viewBox="0.0 0.0 308.11811023622045 100.0" fill="none" stroke="none" stroke-linecap="square" stroke-miterlimit="10" xmlns:xlink="http://www.w3.org/1999/xlink" xmlns="http://www.w3.org/2000/svg"><clipPath id="p.0"><path d="m0 0l308.1181 0l0 100.0l-308.1181 0l0 -100.0z" clip-rule="nonzero"/></clipPath><g clip-path="url(#p.0)"><path fill="#000000" fill-opacity="0.0" d="m0 0l308.1181 0l0 100.0l-308.1181 0z" fill-rule="evenodd"/><path fill="#000000" fill-opacity="0.0" d="m-40.24713 -33.780655l177.10236 0l0 169.60631l-177.10236 0z" fill-rule="evenodd"/><path fill="#20a4f3" d="m18.3264 65.08499l0 33.9375l-17.9375 0l0 -96.390625l31.40625 0q9.65625 0 16.71875 2.265625q7.078125 2.265625 11.671875 6.328125q4.609375 4.0625 6.796875 9.734375q2.203125 5.671875 2.203125 12.406248q0 6.984375 -2.328125 12.828125q-2.328125 5.828125 -7.0 10.03125q-4.671875 4.203125 -11.671875 6.53125q-7.0 2.328125 -16.390625 2.328125l-13.46875 0zm0 -14.0l13.46875 0q4.9375 0 8.59375 -1.21875q3.671875 -1.234375 6.0625 -3.53125q2.40625 -2.3125 3.609375 -5.609375q1.203125 -3.296875 1.203125 -7.359375q0 -3.874998 -1.203125 -6.999998q-1.203125 -3.140625 -3.609375 -5.34375q-2.390625 -2.203125 -6.0625 -3.359375q-3.65625 -1.171875 -8.59375 -1.171875l-13.46875 0l0 34.59375zm63.86122 47.9375l0 -68.390625l9.671875 0q2.53125 0 3.53125 0.9375q1.0 0.9218731 1.328125 3.187498l1.0 8.265625q3.671875 -6.328125 8.59375 -9.984375q4.9375 -3.671873 11.078125 -3.671873q5.0625 0 8.390625 2.328125l-2.125 12.328123q-0.203125 1.203125 -0.875 1.703125q-0.65625 0.5 -1.796875 0.5q-1.0 0 -2.734375 -0.46875q-1.734375 -0.46875 -4.59375 -0.46875q-5.140625 0 -8.8125 2.84375q-3.65625 2.828125 -6.1875 8.296875l0 42.59375l-16.46875 0z" fill-rule="nonzero"/><path fill="#000000" fill-opacity="0.0" d="m197.33443 -33.780655l177.10237 0l0 169.60631l-177.10237 0z" fill-rule="evenodd"/><path fill="#20a4f3" d="m231.33443 63.756866l-22.46875 -33.125l15.875 0q1.796875 0 2.65625 0.5q0.875 0.5 1.53125 1.6249981l14.34375 22.875q0.328125 -1.140625 0.828125 -2.265625q0.5 -1.140625 1.234375 -2.28125l11.531235 -18.0q0.796875 -1.2656231 1.65625 -1.8593731q0.875 -0.59375 2.140625 -0.59375l15.140625 0l-22.531235 32.390625l23.45311 36.0l-15.859375 0q-1.796875 0 -2.90625 -0.921875q-1.09375 -0.9375 -1.828125 -2.140625l-14.531235 -23.796875q-0.59375 2.390625 -1.671875 4.0l-12.796875 19.796875q-0.734375 1.125 -1.796875 2.09375q-1.0625 0.96875 -2.671875 0.96875l-14.734375 0l23.40625 -35.265625zm73.32521 -33.125l0 68.390625l-16.46875 0l0 -68.390625l16.46875 0zm2.46875 -19.9375q0 2.125 -0.875 4.0q-0.859375 1.859375 -2.296875 3.265625q-1.421875 1.40625 -3.359375 2.234375q-1.9375 0.828125 -4.140625 0.828125q-2.125 0 -4.03125 -0.828125q-1.890625 -0.828125 -3.296875 -2.234375q-1.390625 -1.40625 -2.234375 -3.265625q-0.828125 -1.875 -0.828125 -4.0q0 -2.203125 0.828125 -4.125q0.84375 -1.9375 2.234375 -3.34375q1.40625 -1.40625 3.296875 -2.234375q1.90625 -0.828125 4.03125 -0.828125q2.203125 0 4.140625 0.828125q1.9375 0.828125 3.359375 2.234375q1.4375 1.40625 2.296875 3.34375q0.875 1.921875 0.875 4.125z" fill-rule="nonzero"/><path fill="#20a4f3" d="m133.50975 64.859764l0 0c0 -19.012508 15.412689 -34.425194 34.4252 -34.425194l0 0c9.130127 0 17.886322 3.6269302 24.342285 10.082905c6.4559784 6.4559784 10.082916 15.212162 10.082916 24.342289l0 0c0 19.012512 -15.412689 34.4252 -34.4252 34.4252l0 0c-19.012512 0 -34.4252 -15.412689 -34.4252 -34.4252zm17.2126 0l0 0c0 9.506256 7.7063446 17.2126 17.2126 17.2126c9.506256 0 17.2126 -7.7063446 17.2126 -17.2126c0 -9.506252 -7.7063446 -17.212597 -17.2126 -17.212597l0 0c-9.506256 0 -17.2126 7.7063446 -17.2126 17.212597z" fill-rule="evenodd"/><path fill="#20a4f3" d="m133.50975 99.27405l0 -35.65354l35.65355 35.65354z" fill-rule="evenodd"/></g></svg>