<svg version="1.1" viewBox="0.0 0.0 1024.0 1024.0" fill="none" stroke="none" stroke-linecap="square" stroke-miterlimit="10" xmlns:xlink="http://www.w3.org/1999/xlink" xmlns="http://www.w3.org/2000/svg"><clipPath id="p.0"><path d="m0 0l1024.0 0l0 1024.0l-1024.0 0l0 -1024.0z" clip-rule="nonzero"/></clipPath><g clip-path="url(#p.0)"><path fill="#000000" fill-opacity="0.0" d="m0 0l1024.0 0l0 1024.0l-1024.0 0z" fill-rule="evenodd"/><path fill="#e8eef2" d="m0.0030422572 179.89937l0 0c0 -99.354004 80.54232 -179.89633 179.89633 -179.89633l664.2074 0l0 0c47.711426 0 93.46875 18.953308 127.20587 52.69041c33.73712 33.737103 52.69043 79.494446 52.69043 127.20592l0 664.2074c0 99.35394 -80.54236 179.8963 -179.8963 179.8963l-664.2074 0c-99.354004 0 -179.89633 -80.54236 -179.89633 -179.8963z" fill-rule="evenodd"/><path fill="#20a4f3" d="m123.56108 511.96774l0 0c0 -214.53 173.91093 -388.44095 388.44092 -388.44095l0 0c103.020935 0 201.82245 40.92491 274.66925 113.77171c72.8468 72.84682 113.77173 171.6483 113.77173 274.66925l0 0c0 214.53 -173.91095 388.44095 -388.44098 388.44095l0 0c-214.53 0 -388.44092 -173.91095 -388.44092 -388.44095z" fill-rule="evenodd"/><path fill="#e8eef2" d="m452.98413 112.74016l118.04724 0l0 798.51965l-118.04724 0z" fill-rule="evenodd"/><path fill="#e8eef2" d="m911.26245 452.95013l0 118.04724l-798.51965 0l0 -118.04724z" fill-rule="evenodd"/><path fill="#e8eef2" d="m244.89745 511.98636l0 0c0 -147.53394 119.5999 -267.13385 267.13385 -267.13385l0 0c70.84827 0 138.79486 28.144379 188.89215 78.2417c50.09729 50.09732 78.2417 118.04385 78.2417 188.89215l0 0c0 147.53397 -119.599915 267.13388 -267.13385 267.13388l0 0c-147.53397 0 -267.13385 -119.599915 -267.13385 -267.13388z" fill-rule="evenodd"/><path fill="#f75590" d="m369.03427 511.97638l0 0c0 -78.963684 64.012726 -142.97638 142.97641 -142.97638l0 0c37.919678 0 74.286255 15.063538 101.09955 41.8768c26.813293 26.813293 41.87683 63.17987 41.87683 101.09958l0 0c0 78.963684 -64.01276 142.97638 -142.97638 142.97638l0 0c-78.963684 0 -142.97641 -64.012695 -142.97641 -142.97638z" fill-rule="evenodd"/></g></svg>